<svg width="1184" height="624" xmlns="http://www.w3.org/2000/svg" xmlns:xlink="http://www.w3.org/1999/xlink" overflow="hidden"><g><rect x="0" y="0" width="1184" height="624" fill="#FFFFFF"/><text font-family="Calibri,Calibri_MSFontService,sans-serif" font-weight="700" font-size="24" transform="translate(63.8544 72)">Valid</text><path d="M343.5 125.834C343.5 114.604 352.604 105.5 363.834 105.5L532.166 105.5C543.396 105.5 552.5 114.604 552.5 125.834L552.5 207.166C552.5 218.396 543.396 227.5 532.166 227.5L363.834 227.5C352.604 227.5 343.5 218.396 343.5 207.166Z" stroke="#172C51" stroke-width="1.33333" stroke-miterlimit="8" fill="#F2F2F2" fill-rule="evenodd"/><text font-family="Calibri,Calibri_MSFontService,sans-serif" font-weight="400" font-size="24" transform="translate(386.639 174)">Not in water</text><path d="M627.5 125.834C627.5 114.604 636.604 105.5 647.834 105.5L816.166 105.5C827.396 105.5 836.5 114.604 836.5 125.834L836.5 207.166C836.5 218.396 827.396 227.5 816.166 227.5L647.834 227.5C636.604 227.5 627.5 218.396 627.5 207.166Z" stroke="#172C51" stroke-width="1.33333" stroke-miterlimit="8" fill="#F2F2F2" fill-rule="evenodd"/><text font-family="Calibri,Calibri_MSFontService,sans-serif" font-weight="400" font-size="24" transform="translate(655.048 159)">Not in excluded</text><text font-family="Calibri,Calibri_MSFontService,sans-serif" font-weight="400" font-size="24" transform="translate(709.755 188)">area</text><path d="M911.5 126.001C911.5 114.678 920.678 105.5 932 105.5L1099 105.5C1110.32 105.5 1119.5 114.678 1119.5 126.001L1119.5 208C1119.5 219.322 1110.32 228.5 1099 228.5L932 228.5C920.678 228.5 911.5 219.322 911.5 208Z" stroke="#172C51" stroke-width="1.33333" stroke-miterlimit="8" fill="#F2F2F2" fill-rule="evenodd"/><text font-family="Calibri,Calibri_MSFontService,sans-serif" font-weight="400" font-size="24" transform="translate(964.314 160)">Not below</text><text font-family="Calibri,Calibri_MSFontService,sans-serif" font-weight="400" font-size="24" transform="translate(932.074 189)">retainment basin</text><path d="M61.5001 125.834C61.5001 114.604 70.6038 105.5 81.8337 105.5L249.166 105.5C260.396 105.5 269.5 114.604 269.5 125.834L269.5 207.166C269.5 218.396 260.396 227.5 249.166 227.5L81.8337 227.5C70.6038 227.5 61.5001 218.396 61.5001 207.166Z" stroke="#172C51" stroke-width="1.33333" stroke-miterlimit="8" fill="#F2F2F2" fill-rule="evenodd"/><text font-family="Calibri,Calibri_MSFontService,sans-serif" font-weight="400" font-size="24" transform="translate(98.8216 147)">Large enough</text><text font-family="Calibri,Calibri_MSFontService,sans-serif" font-weight="400" font-size="24" transform="translate(82.9616 180)">≥ min_area_km2</text><path d="M269.5 166.5 343.482 166.5" stroke="#000000" stroke-width="3" stroke-miterlimit="8" fill="none" fill-rule="evenodd"/><text font-family="Calibri,Calibri_MSFontService,sans-serif" font-weight="400" font-size="24" transform="translate(287.512 154)">and</text><path d="M552.5 165.5 626.482 165.5" stroke="#000000" stroke-width="3" stroke-miterlimit="8" fill="none" fill-rule="evenodd"/><text font-family="Calibri,Calibri_MSFontService,sans-serif" font-weight="400" font-size="24" transform="translate(569.972 153)">and</text><path d="M836.5 166.5 910.482 166.5" stroke="#000000" stroke-width="3" stroke-miterlimit="8" fill="none" fill-rule="evenodd"/><text font-family="Calibri,Calibri_MSFontService,sans-serif" font-weight="400" font-size="24" transform="translate(853.805 154)">and</text><rect x="44.5001" y="45.5001" width="1096" height="210" stroke="#172C51" stroke-width="1.33333" stroke-miterlimit="8" fill="none"/><path d="M646.5 460.834C646.5 449.604 655.604 440.5 666.834 440.5L908.166 440.5C919.396 440.5 928.5 449.604 928.5 460.834L928.5 542.166C928.5 553.396 919.396 562.5 908.166 562.5L666.834 562.5C655.604 562.5 646.5 553.396 646.5 542.166Z" stroke="#172C51" stroke-width="1.33333" stroke-miterlimit="8" fill="#F2F2F2" fill-rule="evenodd"/><text font-family="Calibri,Calibri_MSFontService,sans-serif" font-weight="400" font-size="24" transform="translate(731.046 482)">Below burn</text><text font-family="Calibri,Calibri_MSFontService,sans-serif" font-weight="400" font-size="24" transform="translate(663.573 515)">≥ min_burned_area_km2</text><path d="M256.5 460.834C256.5 449.604 265.604 440.5 276.834 440.5L518.166 440.5C529.396 440.5 538.5 449.604 538.5 460.834L538.5 542.166C538.5 553.396 529.396 562.5 518.166 562.5L276.834 562.5C265.604 562.5 256.5 553.396 256.5 542.166Z" stroke="#172C51" stroke-width="1.33333" stroke-miterlimit="8" fill="#F2F2F2" fill-rule="evenodd"/><text font-family="Calibri,Calibri_MSFontService,sans-serif" font-weight="400" font-size="24" transform="translate(336.027 494)">In perimeter</text><path d="M538.5 501.5 646.205 501.5" stroke="#000000" stroke-width="3" stroke-miterlimit="8" fill="none" fill-rule="evenodd"/><text font-family="Calibri,Calibri_MSFontService,sans-serif" font-weight="400" font-size="24" transform="translate(581.304 489)">or</text><text font-family="Calibri,Calibri_MSFontService,sans-serif" font-weight="700" font-size="24" transform="translate(257.361 404)">At Risk</text><rect x="237.5" y="377.5" width="710" height="212" stroke="#172C51" stroke-width="1.33333" stroke-miterlimit="8" fill="none"/><path d="M592 255 592 376.723" stroke="#000000" stroke-width="4" stroke-miterlimit="8" fill="none" fill-rule="evenodd"/><text font-family="Calibri,Calibri_MSFontService,sans-serif" font-weight="400" font-size="24" transform="translate(601.6 318)">and</text></g></svg>