<svg width="768" height="912" xmlns="http://www.w3.org/2000/svg" xmlns:xlink="http://www.w3.org/1999/xlink" overflow="hidden"><g><rect x="0" y="0" width="768" height="912" fill="#FFFFFF"/><path d="M60.5001 831.834C60.5001 824.47 66.4697 818.5 73.8337 818.5L173.166 818.5C180.53 818.5 186.5 824.47 186.5 831.834L186.5 885.166C186.5 892.53 180.53 898.5 173.166 898.5L73.8337 898.5C66.4697 898.5 60.5001 892.53 60.5001 885.166Z" stroke="#172C51" stroke-width="1.33333" stroke-miterlimit="8" fill="#F2F2F2" fill-rule="evenodd"/><text font-family="Calibri,Calibri_MSFontService,sans-serif" font-weight="400" font-size="17" transform="translate(89.0899 853)">Intersects</text><text font-family="Calibri,Calibri_MSFontService,sans-serif" font-weight="400" font-size="17" transform="translate(75.9699 874)">included area</text><path d="M597.5 831.834C597.5 824.47 603.47 818.5 610.834 818.5L719.166 818.5C726.53 818.5 732.5 824.47 732.5 831.834L732.5 885.166C732.5 892.53 726.53 898.5 719.166 898.5L610.834 898.5C603.47 898.5 597.5 892.53 597.5 885.166Z" stroke="#172C51" stroke-width="1.33333" stroke-miterlimit="8" fill="#F2F2F2" fill-rule="evenodd"/><text font-family="Calibri,Calibri_MSFontService,sans-serif" font-weight="400" font-size="17" transform="translate(625.213 853)">Needed for</text><text font-family="Calibri,Calibri_MSFontService,sans-serif" font-weight="400" font-size="17" transform="translate(611.966 874)">flow continuity</text><path d="M330.5 831.834C330.5 824.47 336.47 818.5 343.834 818.5L444.166 818.5C451.53 818.5 457.5 824.47 457.5 831.834L457.5 885.166C457.5 892.53 451.53 898.5 444.166 898.5L343.834 898.5C336.47 898.5 330.5 892.53 330.5 885.166Z" stroke="#172C51" stroke-width="1.33333" stroke-miterlimit="8" fill="#F2F2F2" fill-rule="evenodd"/><text font-family="Calibri,Calibri_MSFontService,sans-serif" font-weight="400" font-size="17" transform="translate(362.521 864)">Retained</text><path d="M433.5 364.667C433.5 357.395 439.395 351.5 446.667 351.5L652.333 351.5C659.605 351.5 665.5 357.395 665.5 364.667L665.5 417.333C665.5 424.605 659.605 430.5 652.333 430.5L446.667 430.5C439.395 430.5 433.5 424.605 433.5 417.333Z" stroke="#172C51" stroke-width="1.33333" stroke-miterlimit="8" fill="#F2F2F2" fill-rule="evenodd"/><text font-family="Calibri,Calibri_MSFontService,sans-serif" font-weight="400" font-size="17" transform="translate(529.231 380)">Steep</text><text font-family="Calibri,Calibri_MSFontService,sans-serif" font-weight="400" font-size="17" transform="translate(506.638 402)">≥</text><text font-family="Calibri,Calibri_MSFontService,sans-serif" font-weight="400" font-size="17" transform="translate(518.971 402)">min_slope</text><path d="M433.5 468.834C433.5 461.47 439.47 455.5 446.834 455.5L652.166 455.5C659.53 455.5 665.5 461.47 665.5 468.834L665.5 522.166C665.5 529.53 659.53 535.5 652.166 535.5L446.834 535.5C439.47 535.5 433.5 529.53 433.5 522.166Z" stroke="#172C51" stroke-width="1.33333" stroke-miterlimit="8" fill="#F2F2F2" fill-rule="evenodd"/><text font-family="Calibri,Calibri_MSFontService,sans-serif" font-weight="400" font-size="17" transform="translate(517.601 484)">Confined</text><text font-family="Calibri,Calibri_MSFontService,sans-serif" font-weight="400" font-size="17" transform="translate(479.668 506)">≤</text><text font-family="Calibri,Calibri_MSFontService,sans-serif" font-weight="400" font-size="17" transform="translate(492.001 506)">max_confinement</text><path d="M433.5 260.667C433.5 253.395 439.395 247.5 446.667 247.5L652.333 247.5C659.605 247.5 665.5 253.395 665.5 260.667L665.5 313.333C665.5 320.605 659.605 326.5 652.333 326.5L446.667 326.5C439.395 326.5 433.5 320.605 433.5 313.333Z" stroke="#172C51" stroke-width="1.33333" stroke-miterlimit="8" fill="#F2F2F2" fill-rule="evenodd"/><text font-family="Calibri,Calibri_MSFontService,sans-serif" font-weight="400" font-size="17" transform="translate(523.555 275)">Burned</text><text font-family="Calibri,Calibri_MSFontService,sans-serif" font-weight="400" font-size="17" transform="translate(488.228 297)">≥</text><text font-family="Calibri,Calibri_MSFontService,sans-serif" font-weight="400" font-size="17" transform="translate(500.561 297)">min_burn_ratio</text><path d="M433.5 573.667C433.5 566.395 439.395 560.5 446.667 560.5L652.333 560.5C659.605 560.5 665.5 566.395 665.5 573.667L665.5 626.333C665.5 633.605 659.605 639.5 652.333 639.5L446.667 639.5C439.395 639.5 433.5 633.605 433.5 626.333Z" stroke="#172C51" stroke-width="1.33333" stroke-miterlimit="8" fill="#F2F2F2" fill-rule="evenodd"/><text font-family="Calibri,Calibri_MSFontService,sans-serif" font-weight="400" font-size="17" transform="translate(502.428 588)">Undeveloped</text><text font-family="Calibri,Calibri_MSFontService,sans-serif" font-weight="400" font-size="17" transform="translate(448.541 610)">≤ max_developed_area_km2</text><path d="M0 0 0.000104987 25.0962" stroke="#000000" stroke-width="2" stroke-miterlimit="8" fill="none" fill-rule="evenodd" transform="matrix(-1 0 0 1 549 326)"/><path d="M549 430 549 455.096" stroke="#000000" stroke-width="2" stroke-miterlimit="8" fill="none" fill-rule="evenodd"/><path d="M549 535 549 560.096" stroke="#000000" stroke-width="2" stroke-miterlimit="8" fill="none" fill-rule="evenodd"/><text font-family="Calibri,Calibri_MSFontService,sans-serif" font-weight="400" font-size="17" transform="translate(553.845 344)">and</text><text font-family="Calibri,Calibri_MSFontService,sans-serif" font-weight="400" font-size="17" transform="translate(553.845 447)">and</text><text font-family="Calibri,Calibri_MSFontService,sans-serif" font-weight="400" font-size="17" transform="translate(553.845 551)">and</text><text font-family="Calibri,Calibri_MSFontService,sans-serif" font-weight="700" font-size="24" transform="translate(434.015 222)">Physical</text><rect x="424" y="195" width="253" height="458" stroke="#000000" stroke-width="2" stroke-miterlimit="8" fill="none"/><path d="M115.5 311.667C115.5 304.395 121.395 298.5 128.667 298.5L320.333 298.5C327.605 298.5 333.5 304.395 333.5 311.667L333.5 364.333C333.5 371.605 327.605 377.5 320.333 377.5L128.667 377.5C121.395 377.5 115.5 371.605 115.5 364.333Z" stroke="#172C51" stroke-width="1.33333" stroke-miterlimit="8" fill="#F2F2F2" fill-rule="evenodd"/><text font-family="Calibri,Calibri_MSFontService,sans-serif" font-weight="400" font-size="17" transform="translate(157.463 333)">Segment intersects</text><text font-family="Calibri,Calibri_MSFontService,sans-serif" font-weight="400" font-size="17" transform="translate(189.036 354)">perimeter</text><path d="M115.5 488.834C115.5 481.47 121.47 475.5 128.834 475.5L320.166 475.5C327.53 475.5 333.5 481.47 333.5 488.834L333.5 542.166C333.5 549.53 327.53 555.5 320.166 555.5L128.834 555.5C121.47 555.5 115.5 549.53 115.5 542.166Z" stroke="#172C51" stroke-width="1.33333" stroke-miterlimit="8" fill="#F2F2F2" fill-rule="evenodd"/><text font-family="Calibri,Calibri_MSFontService,sans-serif" font-weight="400" font-size="17" transform="translate(140.636 504)">Catchment in perimeter</text><text font-family="Calibri,Calibri_MSFontService,sans-serif" font-weight="400" font-size="17" transform="translate(150.93 526)">&lt;</text><text font-family="Calibri,Calibri_MSFontService,sans-serif" font-weight="400" font-size="17" transform="translate(163.263 526)">max_exterior_ratio</text><path d="M224 377 224 475.224" stroke="#000000" stroke-width="2" stroke-miterlimit="8" fill="none" fill-rule="evenodd"/><text font-family="Calibri,Calibri_MSFontService,sans-serif" font-weight="400" font-size="17" transform="translate(232.234 431)">and</text><text font-family="Calibri,Calibri_MSFontService,sans-serif" font-weight="700" font-size="24" transform="translate(114.559 222)">In Perimeter</text><rect x="105" y="195" width="239" height="458" stroke="#000000" stroke-width="2" stroke-miterlimit="8" fill="none"/><path d="M268.5 25.6671C268.5 18.3951 274.395 12.5001 281.667 12.5001L487.333 12.5001C494.605 12.5001 500.5 18.3951 500.5 25.6671L500.5 78.333C500.5 85.605 494.605 91.5001 487.333 91.5001L281.667 91.5001C274.395 91.5001 268.5 85.605 268.5 78.333Z" stroke="#172C51" stroke-width="1.33333" stroke-miterlimit="8" fill="#F2F2F2" fill-rule="evenodd"/><text font-family="Calibri,Calibri_MSFontService,sans-serif" font-weight="400" font-size="17" transform="translate(336.447 40)">Not flood</text><text font-family="Calibri,Calibri_MSFontService,sans-serif" font-weight="400" font-size="17" transform="translate(402.447 40)">-</text><text font-family="Calibri,Calibri_MSFontService,sans-serif" font-weight="400" font-size="17" transform="translate(407.78 40)">like</text><text font-family="Calibri,Calibri_MSFontService,sans-serif" font-weight="400" font-size="17" transform="translate(324.36 62)">≤ max_area_km2</text><path d="M400.301 98.2321 539.172 185.998 537.57 188.534 398.699 100.768ZM539.507 182.661 544.711 191.273 534.699 190.269Z"/><path d="M194.5 857 311.204 857 311.204 860 194.5 860ZM309.704 854 318.704 858.5 309.704 863Z"/><path d="M225.603 662.483 357.038 804.97 354.833 807.004 223.397 664.517ZM358.226 801.834 361.021 811.5 351.611 807.936Z"/><path d="M1.2493e-06-1.5 118.555-1.4999 118.555 1.5001-1.2493e-06 1.5ZM117.055-4.4999 126.055 0.000104987 117.055 4.5001Z" transform="matrix(-1 0 0 1 590.555 858.5)"/><path d="M0.801369-1.26799 139.672 86.4981 138.07 89.0341-0.801369 1.26799ZM140.007 83.1608 145.211 91.773 135.199 90.7688Z" transform="matrix(-1 0 0 1 381.711 99.5001)"/><path d="M1.10256-1.01704 132.538 141.47 130.333 143.504-1.10256 1.01704ZM133.726 138.334 136.521 148 127.111 144.436Z" transform="matrix(-1 0 0 1 551.021 663.5)"/></g></svg>